<?xml version="1.0" encoding="UTF-8"?>
<!DOCTYPE svg PUBLIC "-//W3C//DTD SVG 1.1//EN" "http://www.w3.org/Graphics/SVG/1.1/DTD/svg11.dtd">
<svg xmlns="http://www.w3.org/2000/svg" version="1.1" width="362px" height="51px" style="shape-rendering:geometricPrecision; text-rendering:geometricPrecision; image-rendering:optimizeQuality; fill-rule:evenodd; clip-rule:evenodd" xmlns:xlink="http://www.w3.org/1999/xlink">
<g><path style="opacity:0.827" fill="#43b49e" d="M 122.5,-0.5 C 127.5,-0.5 132.5,-0.5 137.5,-0.5C 137.5,-0.166667 137.5,0.166667 137.5,0.5C 131.464,0.359883 125.464,0.693217 119.5,1.5C 120.5,0.833333 121.5,0.166667 122.5,-0.5 Z"/></g>
<g><path style="opacity:0.994" fill="#51eed3" d="M 137.5,0.5 C 143.921,0.798683 148.088,3.79868 150,9.5C 147.629,12.206 144.963,14.5394 142,16.5C 135.205,10.3175 128.205,9.98418 121,15.5C 116.574,23.7465 118.074,30.5798 125.5,36C 132.009,37.7591 137.509,36.2591 142,31.5C 145.312,33.6453 148.146,36.312 150.5,39.5C 145.503,46.41 138.67,49.41 130,48.5C 110.211,46.9617 101.878,36.2951 105,16.5C 107.344,8.99043 112.178,3.99043 119.5,1.5C 125.464,0.693217 131.464,0.359883 137.5,0.5 Z"/></g>
<g><path style="opacity:0.993" fill="#51f0d4" d="M 325.5,-0.5 C 330.5,-0.5 335.5,-0.5 340.5,-0.5C 358.574,6.6707 363.74,19.3374 356,37.5C 348.084,47.14 337.917,50.64 325.5,48C 307.091,40.3399 302.257,27.5065 311,9.5C 314.977,4.7741 319.811,1.44077 325.5,-0.5 Z M 328.5,11.5 C 340.804,9.97211 346.304,15.3054 345,27.5C 342.292,35.5078 336.792,38.3411 328.5,36C 317.939,27.8444 317.939,19.6777 328.5,11.5 Z"/></g>
<g><path style="opacity:0.993" fill="#53f3d7" d="M 14.5,0.5 C 14.5,12.8333 14.5,25.1667 14.5,37.5C 21.8333,37.5 29.1667,37.5 36.5,37.5C 36.5,40.8333 36.5,44.1667 36.5,47.5C 24.5,47.5 12.5,47.5 0.5,47.5C 0.333412,32.163 0.500079,16.8297 1,1.5C 5.40142,0.533348 9.90142,0.200015 14.5,0.5 Z"/></g>
<g><path style="opacity:0.997" fill="#52f2d6" d="M 47.5,0.5 C 52.1667,0.5 56.8333,0.5 61.5,0.5C 61.3335,10.1724 61.5002,19.8391 62,29.5C 63.756,35.9638 67.9227,38.1304 74.5,36C 76.0488,34.786 77.2155,33.286 78,31.5C 78.4998,21.172 78.6665,10.8387 78.5,0.5C 83.1667,0.5 87.8333,0.5 92.5,0.5C 92.9375,12.5758 92.4375,24.5758 91,36.5C 86.7195,45.1432 79.7195,49.1432 70,48.5C 57.6877,49.1801 50.3544,43.5134 48,31.5C 47.5002,21.172 47.3335,10.8387 47.5,0.5 Z"/></g>
<g><path style="opacity:0.997" fill="#52f4d8" d="M 161.5,0.5 C 166.167,0.5 170.833,0.5 175.5,0.5C 175.5,16.1667 175.5,31.8333 175.5,47.5C 170.833,47.5 166.167,47.5 161.5,47.5C 161.5,31.8333 161.5,16.1667 161.5,0.5 Z"/></g>
<g><path style="opacity:0.99" fill="#52f3d7" d="M 205.5,0.5 C 210.179,0.334181 214.845,0.500847 219.5,1C 226.694,16.249 233.694,31.5824 240.5,47C 235.467,47.8289 230.467,47.6623 225.5,46.5C 223.924,44.0207 222.924,41.354 222.5,38.5C 215.833,38.5 209.167,38.5 202.5,38.5C 202.076,41.354 201.076,44.0207 199.5,46.5C 194.88,47.4933 190.214,47.8266 185.5,47.5C 191.887,31.7239 198.554,16.0572 205.5,0.5 Z M 211.5,16.5 C 212.376,16.3691 213.043,16.7025 213.5,17.5C 214.833,20.8333 216.167,24.1667 217.5,27.5C 214.232,28.487 210.898,28.8204 207.5,28.5C 208.826,24.5105 210.16,20.5105 211.5,16.5 Z"/></g>
<g><path style="opacity:0.995" fill="#52f3d7" d="M 279.5,23.5 C 279.783,24.2891 280.283,24.9558 281,25.5C 281.5,17.1733 281.666,8.83999 281.5,0.5C 285.833,0.5 290.167,0.5 294.5,0.5C 294.5,16.1667 294.5,31.8333 294.5,47.5C 290.486,47.6655 286.486,47.4988 282.5,47C 276,39.1667 269.5,31.3333 263,23.5C 262.5,31.4931 262.334,39.4931 262.5,47.5C 257.833,47.5 253.167,47.5 248.5,47.5C 248.176,31.9221 248.509,16.4221 249.5,1C 253.5,0.333333 257.5,0.333333 261.5,1C 267.714,8.37465 273.714,15.8747 279.5,23.5 Z"/></g>
<g><path style="opacity:0.329" fill="#337d6d" d="M 281.5,0.5 C 281.666,8.83999 281.5,17.1733 281,25.5C 280.283,24.9558 279.783,24.2891 279.5,23.5C 280.167,15.8333 280.833,8.16667 281.5,0.5 Z"/></g>
<g><path style="opacity:0.463" fill="#378978" d="M 14.5,0.5 C 15.4951,12.3217 15.8284,24.3217 15.5,36.5C 22.8333,36.5 30.1667,36.5 37.5,36.5C 37.815,40.3714 37.4816,44.0381 36.5,47.5C 36.5,44.1667 36.5,40.8333 36.5,37.5C 29.1667,37.5 21.8333,37.5 14.5,37.5C 14.5,25.1667 14.5,12.8333 14.5,0.5 Z"/></g>
</svg>
